# xmcd
#
# Track frame offsets:
# 200
# 13292
# 43647
# 55637
# 67292
# 78465
# 88692
# 100237
# 117015
# 132195
# 146732
# 159515
#
# Disc length: 2373 seconds
#
#
# Revision: 0
# Processed by: cddbd v1.5.2PL0 Copyright (c) Steve Scherf et al.
# Submitted via: FreeRIP 2.93 
#
DISCID=a309430c
DTITLE=All Time Texas Dance Favorites
DYEAR=1994
DGENRE=Country
TTITLE0=Original River Road Boys - The Birdie Dance
TTITLE1=Isaac Payton Sweat - Cotton Eyed Joe - Ext. "Bull Shit" Dance Version
TTITLE2=Isaac Payton Sweat - The Schottische
TTITLE3=Herb Remmington - Steel Guitar Rag
TTITLE4=Bob White and The Favorites - Deep In The Heart of Texas
TTITLE5=Johnny Bush w Willie Nelson - Together Again
TTITLE6=Johnny Bush - Whiskey River
TTITLE7=Isaac Payton Sweat - Hokey Pokey - Bunny Hop - Little Foot
TTITLE8=Bob White and The Favorites - Faded Love
TTITLE9=The Traits - Harlem Shuffle
TTITLE10=Bob White and The Favorites - Faded Love
TTITLE11=Isaac Payton Sweat - Mathilda
EXTD=
EXTT0=
EXTT1=
EXTT2=
EXTT3=
EXTT4=
EXTT5=
EXTT6=
EXTT7=
EXTT8=
EXTT9=
EXTT10=
EXTT11=
PLAYORDER=
